<?xml version="1.0" encoding="UTF-8" standalone="no"?>
<svg
   xmlns:dc="http://purl.org/dc/elements/1.1/"
   xmlns:cc="http://creativecommons.org/ns#"
   xmlns:rdf="http://www.w3.org/1999/02/22-rdf-syntax-ns#"
   xmlns:svg="http://www.w3.org/2000/svg"
   xmlns="http://www.w3.org/2000/svg"
   viewBox="0 0 3333.3333 3333.3333"
   height="3333.3333"
   width="3333.3333"
   xml:space="preserve"
   id="svg2"
   version="1.1"><metadata
     id="metadata8"><rdf:RDF><cc:Work
         rdf:about=""><dc:format>image/svg+xml</dc:format><dc:type
           rdf:resource="http://purl.org/dc/dcmitype/StillImage" /></cc:Work></rdf:RDF></metadata><defs
     id="defs6"><clipPath
       id="clipPath24"
       clipPathUnits="userSpaceOnUse"><path
         id="path22"
         d="m 14341.9,11214.9 c -25.9,218.8 408.3,536.8 959.3,672.3 856.1,210.4 1059,-88.5 1057.6,-308.8 -2.8,-410 -222,-489.3 -981.2,-535.7 -566.2,-34.6 -1009.6,-46.6 -1035.7,172.2 z m -4719.68,-172.2 c -758.95,46.4 -978.23,125.7 -981,535.7 -1.39,220.3 201.51,519.2 1057.63,308.8 550.95,-135.5 985.15,-453.5 959.05,-672.3 -26.1,-218.8 -469.2,-206.8 -1035.68,-172.2 z m 528.78,3208.8 c 99.3,284.4 368.2,475.4 669.4,475.4 h 3359.2 c 301.2,0 570.1,-191 669.4,-475.4 l 349.5,-1001.8 H 9801.57 Z m 6647.8,-2508.7 c -2.3,11.3 -4,22.6 -6.5,33.9 -108.3,659.1 -347.9,1133.5 -825.2,1346.7 529.7,13.8 670.5,210.4 691.6,443.9 20.5,234.4 -83.6,298.7 -305.2,311.4 -133.9,7.7 -197.4,7.3 -331.7,5.3 -90.9,-1.2 -173.8,-39.5 -231.7,-103.2 l -144.8,-178.4 -288.3,826.3 c -174.5,500.3 -647.7,836.4 -1177.4,836.4 h -3359.2 c -529.7,0 -1002.9,-336.1 -1177.64,-836.3 l -288.07,-826.4 -144.72,178.4 c -57.94,63.7 -140.8,102 -231.75,103.2 -134.34,2 -197.82,2.4 -331.69,-5.3 -221.59,-12.7 -325.93,-77 -305.15,-311.4 21,-233.5 161.81,-430 691.08,-443.9 -477.57,-213.2 -716.47,-687.6 -824.96,-1346.7 -2.31,-11.3 -3.46,-22.6 -6.46,-33.9 -160.89,-837.5 -184.43,-1558.4 407.4,-1845.2 v -458 c 0,-230 186.51,-416.5 416.41,-416.5 h 1100.75 c 230.2,0 416.7,186.5 416.7,416.5 v 313.2 h 3915.4 v -313.2 c 0,-230 186.6,-416.5 416.5,-416.5 H 15975 c 230.1,0 416.6,186.5 416.6,416.5 V 9898 c 590.9,287 569,1007.6 407.2,1844.8 z M 17099,7444.3 c -2188.5,-2188.6 -5562.1,-2488.5 -8074.45,-899 -183.66,115.6 -362.67,242.5 -536.38,378.7 v 0 0 l -652.54,-656.5 -137.53,1389.2 -62,631.1 760.03,-70.8 1261.49,-116.9 -534.9,-537.6 v 0 c 177.52,-134.9 361.19,-257.1 551.61,-367.3 2147.87,-1251.6 4954.97,-958.4 6793.67,880.2 1837.2,1837.4 2130.5,4644.4 878.1,6791.7 l 762.6,466.8 C 19570.7,12842.7 19234.1,9579.4 17099,7444.3 Z M 7652.61,9215.5 6883.27,8763.9 c -1453.19,2488.9 -1113.17,5744.7 1019.22,7877 2188.71,2188.7 5561.41,2487.9 8073.11,897.7 184.6,-116.3 363.3,-241.8 536.4,-378.7 l 598.6,602.4 124.9,-1263 74.6,-757.4 -647.8,60.2 -1374.5,126.9 588.4,592.4 v 0 c -177.7,134.9 -361.4,257.1 -550.3,367.3 -2147.9,1251.6 -4954.4,959.1 -6792.23,-878.9 C 6694.96,14171.1 6401.06,11363.4 7652.61,9215.5 Z" /></clipPath><linearGradient
       id="linearGradient34"
       spreadMethod="pad"
       gradientTransform="matrix(7296.15,12637.3,12637.3,-7296.15,8833.65,5691.3)"
       gradientUnits="userSpaceOnUse"
       y2="0"
       x2="1"
       y1="0"
       x1="0"><stop
         id="stop28"
         offset="0"
         style="stop-opacity:1;stop-color:#413be3" /><stop
         id="stop30"
         offset="0.01102705"
         style="stop-opacity:1;stop-color:#413be3" /><stop
         id="stop32"
         offset="1"
         style="stop-opacity:1;stop-color:#b023eb" /></linearGradient></defs><g
     transform="matrix(1.3333333,0,0,-1.3333333,0,3333.3333)"
     id="g10"><g
       transform="scale(0.1)"
       id="g12"><g
         transform="scale(1.53374)"
         id="g14"><path
           id="path16"
           style="fill:#ffffff;fill-opacity:1;fill-rule:nonzero;stroke:none"
           d="M 16300,0 H 0 V 16300 H 16300 V 0" /></g><g
         id="g18"><g
           clip-path="url(#clipPath24)"
           id="g20"><g
             transform="scale(1.16564)"
             id="g26"><path
               id="path36"
               style="fill:url(#linearGradient34);fill-opacity:1;fill-rule:nonzero;stroke:none"
               d="m 12303.8,9621.21 c -22.2,187.7 350.3,460.49 823,576.79 734.5,180.5 908.5,-76 907.3,-264.95 -2.4,-351.74 -190.4,-419.77 -841.7,-459.58 -485.8,-29.68 -866.2,-39.97 -888.6,147.74 z M 8254.85,9473.47 c -651.1,39.81 -839.21,107.84 -841.59,459.58 -1.19,188.95 172.87,445.45 907.33,264.95 472.66,-116.3 845.16,-389.09 822.77,-576.79 -22.39,-187.71 -402.53,-177.42 -888.51,-147.74 z m 453.64,2752.83 c 85.19,244 315.88,407.8 574.28,407.8 h 2881.83 c 258.4,0 489.1,-163.8 574.3,-407.8 l 299.8,-859.5 H 8408.72 Z m 5703.11,-2152.2 c -2,9.7 -3.4,19.4 -5.6,29.1 -92.9,565.4 -298.4,972.4 -707.9,1155.3 454.4,11.8 575.2,180.5 593.3,380.8 17.6,201.1 -71.7,256.3 -261.8,267.2 -114.9,6.6 -169.4,6.2 -284.6,4.5 -78,-1 -149.1,-33.9 -198.8,-88.5 l -124.2,-153.1 -247.3,708.9 c -149.7,429.2 -555.7,717.6 -1010.1,717.6 H 9282.77 c -454.43,0 -860.39,-288.4 -1010.3,-717.5 l -247.13,-709 -124.16,153.1 c -49.7,54.6 -120.79,87.5 -198.81,88.5 -115.25,1.7 -169.71,2.1 -284.56,-4.5 -190.1,-10.9 -279.61,-66.1 -261.78,-267.2 18.01,-200.3 138.81,-368.9 592.87,-380.8 -409.7,-182.9 -614.65,-589.9 -707.73,-1155.3 -1.98,-9.7 -2.97,-19.4 -5.54,-29.1 -138.03,-718.5 -158.22,-1336.96 349.51,-1583 v -392.92 c 0,-197.31 160,-357.31 357.23,-357.31 h 944.33 c 197.49,0 357.48,160 357.48,357.31 v 268.7 h 3359.02 v -268.7 c 0,-197.31 160.1,-357.31 357.3,-357.31 h 944.4 c 197.4,0 357.4,160 357.4,357.31 v 393.26 c 506.9,246.22 488.1,864.42 349.3,1582.66 z m 257.5,-3687.67 C 12791.6,4508.84 9897.44,4251.56 7742.11,5615.18 c -157.56,99.17 -311.13,208.04 -460.15,324.88 v 0 0 l -559.82,-563.2 -117.98,1191.79 -53.19,541.41 652.02,-60.74 1082.23,-100.29 -458.89,-461.2 v 0 c 152.3,-115.73 309.87,-220.56 473.23,-315.11 1842.64,-1073.74 4250.84,-822.2 5828.24,755.13 1576.1,1576.29 1827.8,3984.45 753.3,5826.55 l 654.3,400.5 c 1254.2,-2137.2 965.4,-4936.78 -866.3,-6768.47 z m -8103.97,1519.5 -660.01,-387.42 c -1246.68,2135.21 -954.98,4928.39 874.39,6757.69 1877.68,1877.6 4771.09,2134.3 6925.89,770 158.3,-99.7 311.7,-207.4 460.2,-324.8 l 513.5,516.8 107.1,-1083.5 64,-649.8 -555.7,51.6 -1179.2,108.9 504.8,508.2 v 0 c -152.4,115.7 -310,220.6 -472.1,315.1 -1842.7,1073.8 -4250.34,822.8 -5827.01,-754 C 5743.57,12157.3 5491.43,9748.6 6565.13,7905.93" /></g></g></g></g></g></svg>